<svg xmlns="http://www.w3.org/2000/svg" width="403" height="120" viewBox="0 0 403 120"><defs><linearGradient id="ehpqa" x1="201.79" x2="201.21" y1="120" y2="0" gradientUnits="userSpaceOnUse"><stop offset="0" stop-color="#efb51a"/><stop offset=".01" stop-color="#efb51a"/><stop offset=".91" stop-color="#c40400"/><stop offset="1" stop-color="#c40400"/></linearGradient><clipPath id="ehpqb"><path d="M369.226 119.998H10.2c-6.443 0-11.2-6.017-9.72-12.296l23.572-100a9.99 9.99 0 0 1 9.721-7.703H392.8c6.444 0 11.201 6.017 9.721 12.297l-23.572 100a9.99 9.99 0 0 1-9.722 7.702z"/></clipPath></defs><g><g><path fill="url(#ehpqa)" d="M369.226 119.998H10.2c-6.443 0-11.2-6.017-9.72-12.296l23.572-100a9.99 9.99 0 0 1 9.721-7.703H392.8c6.444 0 11.201 6.017 9.721 12.297l-23.572 100a9.99 9.99 0 0 1-9.722 7.702z"/></g><g clip-path="url(#ehpqb)" opacity=".4"><g><text fill="#520010" style="line-height:30px" dominant-baseline="text-before-edge" font-family="'Barlow Condensed'" font-size="38.51" font-style="none" font-weight="700" transform="translate(-21 -7)"><tspan style="font-kerning:normal">D</tspan><tspan style="font-kerning:normal">OTA</tspan></text></g></g></g></svg>