<svg width="18" height="14" viewBox="0 0 18 14" fill="none" xmlns="http://www.w3.org/2000/svg">
<path d="M18 1.65706C17.3233 1.94317 16.609 2.13042 15.879 2.21306C16.6414 1.78216 17.2192 1.08655 17.503 0.258057C16.789 0.663057 15.999 0.957057 15.158 1.11506C14.8053 0.759278 14.3852 0.477415 13.9223 0.285961C13.4594 0.0945078 12.9629 -0.00268981 12.462 5.66179e-05C10.422 5.66179e-05 8.76998 1.58206 8.76998 3.53406C8.76998 3.81106 8.80298 4.08106 8.86598 4.33906C5.79598 4.19206 3.07598 2.78506 1.25398 0.646057C0.935976 1.16806 0.753977 1.77606 0.753977 2.42306C0.753977 3.64906 1.40598 4.73106 2.39698 5.36506C1.81274 5.34835 1.24023 5.19709 0.723977 4.92306V4.96806C0.723977 6.68006 1.99698 8.10806 3.68598 8.43306C3.14109 8.57501 2.57166 8.5955 2.01798 8.49306C2.48798 9.89806 3.85198 10.9191 5.46798 10.9481C4.14367 11.9361 2.53422 12.467 0.881977 12.4611C0.583977 12.4611 0.289977 12.4441 0.000976562 12.4111C1.70398 13.4541 3.66296 14.0041 5.65998 14.0001C12.453 14.0001 16.168 8.61406 16.168 3.94306C16.168 3.79006 16.164 3.63806 16.158 3.48606C16.8759 2.99048 17.4997 2.37077 18 1.65606V1.65706Z" fill="white"/>
</svg>
